<?xml version="1.0" standalone="no"?>
<!DOCTYPE svg PUBLIC "-//W3C//DTD SVG 1.1//EN" "http://www.w3.org/Graphics/SVG/1.1/DTD/svg11.dtd" >
<svg xmlns="http://www.w3.org/2000/svg">
<metadata>
Created by FontForge 20120731 at Wed Mar 12 14:28:51 2014
 By Léo Galley
Created by Le'o Galley with FontForge 2.0 (http://fontforge.sf.net)
</metadata>
<defs>
<font id="bluefields-icon" horiz-adv-x="512" >
  <font-face 
    font-family="bluefields-icon"
    font-weight="500"
    font-stretch="normal"
    units-per-em="512"
    panose-1="2 0 6 3 0 0 0 0 0 0"
    ascent="448"
    descent="-64"
    bbox="-0.722222 -64.5588 513.023 451"
    underline-thickness="25"
    underline-position="-52"
    unicode-range="U+F001-F04C"
  />
<missing-glyph horiz-adv-x="187" 
d="M17 0v341h136v-341h-136zM34 17h102v307h-102v-307z" />
    <glyph glyph-name=".notdef" horiz-adv-x="187" 
d="M17 0v341h136v-341h-136zM34 17h102v307h-102v-307z" />
    <glyph glyph-name=".null" horiz-adv-x="0" 
 />
    <glyph glyph-name="nonmarkingreturn" horiz-adv-x="170" 
 />
    <glyph glyph-name="uniF001" unicode="&#xf001;" horiz-adv-x="465" 
d="M233 136l181 181l51 -52l-206 -207l-26 -26l-233 233l52 52z" />
    <glyph glyph-name="uniF002" unicode="&#xf002;" horiz-adv-x="254" 
d="M88 192l156 -155q10 -11 10 -26t-11 -26t-26 -11t-25 11l-181 181q-11 11 -11 26t11 26l181 181q10 11 25 11t26 -11t11 -26t-10 -26z" />
    <glyph glyph-name="uniF003" unicode="&#xf003;" horiz-adv-x="284" 
d="M103 192l181 -181l-51 -52l-207 207l-26 26l233 233l51 -52z" />
    <glyph glyph-name="uniF004" unicode="&#xf004;" horiz-adv-x="254" 
d="M166 192l-155 155q-11 11 -11 26t11 26t26 11t25 -11l182 -181q10 -10 10 -26t-10 -26l-182 -181q-10 -11 -25 -11t-26 11t-11 26t11 26z" />
    <glyph glyph-name="uniF005" unicode="&#xf005;" horiz-adv-x="284" 
d="M181 192l-181 181l52 52l207 -207l25 -26l-232 -233l-52 52z" />
    <glyph glyph-name="uniF006" unicode="&#xf006;" horiz-adv-x="435" 
d="M218 230l-156 -155q-10 -11 -25 -11t-26 11t-11 26t11 25l181 182q10 10 26 10q15 0 25 -10l182 -182q11 -10 11 -25t-11 -26t-26 -11t-26 11z" />
    <glyph glyph-name="uniF007" unicode="&#xf007;" horiz-adv-x="465" 
d="M233 230l-181 -181l-52 52l207 206l26 26l232 -232l-51 -52z" />
    <glyph glyph-name="uniF008" unicode="&#xf008;" horiz-adv-x="435" 
d="M218 136l155 155q11 11 26 11t25 -11q11 -11 11 -26t-10 -26l-182 -181q-10 -10 -25 -10q-16 0 -26 10l-181 181q-11 11 -11 26t11 26t26 11t25 -11z" />
    <glyph glyph-name="uniF009" unicode="&#xf009;" horiz-adv-x="366" 
d="M366 344v-203q0 -42 -42 -83.5t-84 -63t-57 -21.5t-57 21.5t-84 63t-42 83.5v203q0 28 53.5 47.5t129.5 19.5t129.5 -19.5t53.5 -47.5zM183 9q6 2 16.5 6t36.5 17.5t45.5 28t34.5 36.5t13 44v51h-146v183q-68 0 -117 -18q-23 -9 -28 -14q-1 -1 -1 1q2 -152 0 -152v0v0v0
h1v0h1v0h1v0h1h1h1h1h1h1h1h1h1h1h1h1h1h1h1h1h1h1h1h1h1h1h1h1h2h1h1h1h1h1h1h2h1h1h1h1h2h1h1h1h2h1h1h2h1h1h2h1h1h2h1h2h1h2h1h1h2h1h2h1h2h1h2h1h2h2h1h2h1h2h2h1h2h1h2h2h1h2h2h1h2h2h1h2h2h2h1h2h2h2h1h2h2h2h2h1h2h10v-183z" />
    <glyph glyph-name="uniF00A" unicode="&#xf00a;" horiz-adv-x="511" 
d="M436 -18l-90 90q-52 53 -141 119.5t-115 91.5q-7 7 -26 24.5t-31 29t-22.5 26.5t-10.5 25q0 28 16 44t44 16q10 0 25.5 -10.5t27 -22.5t29 -31t24.5 -26q27 -27 95.5 -118.5t114.5 -137.5l90 -90l15 15q11 0 20.5 -9.5t9.5 -20.5l-60 -60q-11 0 -20.5 9.5t-9.5 20.5z
M166 148q19 0 31.5 -13.5t12.5 -32.5t-12.5 -32t-31.5 -13t-32.5 13t-13.5 32t13.5 32.5t32.5 13.5z" />
    <glyph glyph-name="uniF00B" unicode="&#xf00b;" horiz-adv-x="511" 
d="M135 129q-34 17 -55.5 62t-23.5 89.5t8 81.5q73 83 184 86q-35 -42 -64 -135t-34 -190zM210 328q32 95 64 119q106 -8 173 -86q-155 -242 -270 -242h-7q4 101 40 209zM176 100q125 0 284 246q51 -66 51 -154q0 -27 -6 -54q-58 -82 -239 -82h-32q-31 1 -64 8
q0 6 -0.5 17.5t-0.5 18.5h7zM0 192q0 71 37 133q-6 -55 13 -113q25 -75 76 -100q12 -6 24 -9v-35q-118 26 -146 80q-4 30 -4 44zM70 16q-37 40 -55 90q45 -39 136 -58q0 -3 1 -9.5t1.5 -11.5t0.5 -9q-33 3 -84 -2zM233 37q11 -1 33 -1q150 0 227 62q-39 -96 -132 -138
q-41 8 -105 31q-53 20 -82 25q-2 18 -3 28q40 -6 62 -7zM170 -48q-46 17 -82 47q39 3 70 0q5 -28 12 -47zM178 -4q29 -6 71 -23q46 -17 79 -25q-68 -20 -136 -3q-7 17 -14 51z" />
    <glyph glyph-name="uniF00C" unicode="&#xf00c;" horiz-adv-x="460" 
d="M366 234q9 -19 23 -29.5t25.5 -13t24 -13t19.5 -29.5q11 -40 -43 -97t-141 -87q-97 -35 -174.5 -28t-88.5 42q-11 32 7 64t7 64q-30 114 -23.5 176.5t66.5 107.5q14 14 14 31.5t14 24.5q13 3 27.5 -9t36.5 -12q75 5 114.5 -35.5t91.5 -156.5zM259 0q37 15 70 37
t52.5 41.5t30.5 35t11 21.5q-4 12 -27.5 17.5t-73 -1.5t-112.5 -30q-59 -20 -99.5 -47.5t-54.5 -48t-10 -32.5q5 -5 31.5 -11t78.5 -3.5t103 21.5zM224 99q8 8 21 8q5 -21 -14 -45t-50 -34q-55 -21 -85 7q48 38 128 64z" />
    <glyph glyph-name="uniF00D" unicode="&#xf00d;" horiz-adv-x="511" 
d="M256 448q106 0 180.5 -75t74.5 -181t-74.5 -180.5t-180.5 -74.5t-181 74.5t-75 180.5t75 181t181 75zM390 302q13 0 22 9t9 22q0 12 -9 21t-22 9t-21.5 -9t-8.5 -21q0 -13 8.5 -22t21.5 -9zM283 286q13 0 22 9t9 21q0 13 -9 21.5t-22 8.5t-21.5 -8.5t-8.5 -21.5
q0 -12 8.5 -21t21.5 -9zM374 195q13 0 21.5 9t8.5 22q0 12 -8.5 21t-21.5 9t-21.5 -9t-8.5 -21q0 -13 8.5 -22t21.5 -9z" />
    <glyph glyph-name="uniF00E" unicode="&#xf00e;" 
d="M0 448h512v-73h-121h-391v73zM0 302h73v-73h-17h-56v73zM146 302h73v-73h-17h-56v73zM293 302h73v-73h-18h-55v73zM439 302h73v-73h-17h-56v73zM0 155h73v-73h-17h-56v73zM146 155h73v-73h-17h-56v73zM293 155h73v-73h-18h-55v73zM439 155h73v-73h-17h-56v73zM0 9h73v-73
h-17h-56v73zM146 9h73v-73h-17h-56v73zM293 9h73v-73h-18h-55v73z" />
    <glyph glyph-name="uniF00F" unicode="&#xf00f;" 
d="M128 336q-10 0 -17 7t-7 17v64q0 10 7 17t17 7t17 -7t7 -17v-64q0 -10 -7 -17t-17 -7zM384 336q-10 0 -17 7t-7 17v64q0 10 7 17t17 7t17 -7t7 -17v-64q0 -10 -7 -17t-17 -7zM297 79q6 -6 16 -6q8 0 11 2q6 4 8 7q5 7 5 8q1 3 1 11t-1 11q-1 5 -5 8q-5 5 -8 6q-6 2 -11 2
q-9 0 -13 -3q-6 -4 -9 -8h-27l15 80h81v-24h-60l-6 -33l1 -1q6 6 13 9q5 2 15 2q13 0 19 -3t14 -11q6 -6 9 -16q3 -9 3 -19q0 -13 -4 -21q-5 -10 -12 -17q-6 -7 -17 -11q-7 -3 -21 -3q-11 0 -20 3q-12 4 -17 8q-7 6 -12 15q-5 10 -5 20h29q1 -9 8 -16zM158 90q7 9 15 14
q3 2 9 6.5t9 6.5q6 4 10 6t10 8q3 3 7 9q3 4 3 12q0 11 -6 17t-15 6q-6 0 -11 -3t-8 -8q0 -1 -3 -11q-2 -8 -2 -12h-28q0 13 3 23t10 19t17 13q9 4 23 4q10 0 19 -3q8 -3 16 -9q7 -5 11 -14q4 -8 4 -20q0 -8 -4 -18t-9 -15q-8 -8 -13 -11q-2 -1 -7 -4.5t-8 -5.5
q-10 -6 -15 -10q-4 -4 -12 -13h69v-26h-107q0 14 3 23q2 6 10 16zM48 -16h416v272h-416v-272zM488 -64h-464q-10 0 -17 7t-7 17v400q0 10 7 17t17 7h48v-24q0 -23 16.5 -39.5t39.5 -16.5t39.5 16.5t16.5 39.5v24h144v-24q0 -23 16.5 -39.5t39.5 -16.5t39.5 16.5t16.5 39.5
v24h48q10 0 17 -7t7 -17v-400q0 -10 -7 -17t-17 -7z" />
    <glyph glyph-name="uniF010" unicode="&#xf010;" 
d="M37 338h36v-146q0 -30 21.5 -51.5t51.5 -21.5h226l30 -30v-7q0 -15 -10.5 -25.5t-25.5 -10.5h-241l-52 -52q-11 -11 -18.5 -7.5t-7.5 18.5v41h-11q-15 0 -25.5 10.5t-10.5 25.5v220q0 15 11 25.5t26 10.5zM387 155h-241q-15 0 -25.5 11t-10.5 26v183q0 16 10.5 26
t25.5 10h330q15 0 25.5 -10.5t10.5 -25.5v-183q0 -16 -10.5 -26.5t-25.5 -10.5h-7v-45q0 -15 -7.5 -18.5t-18.5 7.5z" />
    <glyph glyph-name="uniF011" unicode="&#xf011;" 
d="M178 314q3 -58 48 -99t115 -45q8 -1 32 4l2 1q31 -33 83 -36q-15 -63 -72 -102t-142 -39q-10 0 -27 3.5t-21 3.5q-28 -37 -69 -54t-68 -15l-27 1q20 10 34 23t20.5 25.5t8.5 23.5t0 18.5t-6 10.5q-89 54 -89 145q0 65 52 115.5t134 65.5q-9 -25 -8 -50zM454 231
q-3 -4 -4.5 -14t9.5 -26t32 -26q-3 0 -7.5 -0.5t-18 0.5t-26 4.5t-28 14t-27.5 25.5q-25 -5 -32 -5q-65 0 -104.5 35t-39.5 87t39.5 87t104.5 35q67 0 113.5 -36t46.5 -86q0 -60 -58 -95z" />
    <glyph glyph-name="uniF012" unicode="&#xf012;" horiz-adv-x="468" 
d="M165 107l241 240q10 11 26 11t26 -11t10 -26t-10 -26l-259 -258l-2 -2q-2 -4 -5 -7q-10 -10 -26 -10t-26 10l-129 130q-11 11 -11 25.5t11 25.5t26 11t26 -11z" />
    <glyph glyph-name="uniF013" unicode="&#xf013;" horiz-adv-x="499" 
d="M180 107l267 266l52 -52l-267 -266l1 -1l-52 -52l-181 182l52 51z" />
    <glyph glyph-name="uniF014" unicode="&#xf014;" horiz-adv-x="406" 
d="M150 403q0 -11 -5 -17q5 -8 5 -19q0 -15 -11 -26t-27 -11h-4q-13 -16 -34 -16q-32 0 -42 29h-2q-12 0 -21 8.5t-9 21.5q0 14 11 23v4q0 11 8 19.5t19 10.5q13 18 36 18q21 0 35 -17q3 2 11 2q12 0 21 -9t9 -21zM256 403q0 12 9 21t21 9q7 0 11 -2q14 17 35 17
q23 0 36 -18q11 -2 19 -10.5t8 -19.5v-4q11 -9 11 -23q0 -13 -9 -21.5t-21 -8.5h-2q-10 -29 -42 -29q-21 0 -34 16h-4q-15 0 -26.5 11t-11.5 26q0 11 5 19q-5 6 -5 17zM192 36v-79v-6q-5 -15 -23 -15q-1 0 -9 2q-4 1 -6 2q-4 2 -74 42q-21 11 -9 31q10 21 32 9l43 -26v40
h-36h-4v4l48 96l-27 76l-1 1l-26 79q-8 24 11 30t27 -18l29 -86h73v2l27 85q7 24 27 18t11 -31l-25 -77l-1 -1l-27 -77l49 -96v-5h-3h-42v-77q0 -23 -23 -23q-7 0 -14 4q-9 4 -9 10v86h-18zM202 228q-15 0 -25 10.5t-10 25.5q0 14 10 24t25 10q14 0 24.5 -10t10.5 -24
q0 -15 -10.5 -25.5t-24.5 -10.5z" />
    <glyph glyph-name="uniF015" unicode="&#xf015;" horiz-adv-x="511" 
d="M256 446q106 0 180.5 -74.5t74.5 -180.5t-74.5 -180.5t-180.5 -74.5t-181 74.5t-75 180.5t75 180.5t181 74.5zM256 -22q88 0 150 62.5t62 150.5t-62 150.5t-150 62.5t-150.5 -62t-62.5 -151q0 -88 62.5 -150.5t150.5 -62.5zM262 190h106q9 0 15.5 -6.5t6.5 -15.5
t-6.5 -15t-15.5 -6h-128q-9 0 -15 6t-6 15v150q0 9 6 15t15 6t15.5 -6t6.5 -15v-128z" />
    <glyph glyph-name="uniF016" unicode="&#xf016;" 
d="M462 192q0 -46 50 -74q-7 -25 -22 -52q-44 12 -82 -26q-33 -33 -20 -82q-27 -15 -52 -22q-13 23 -34.5 36.5t-45.5 13.5t-45.5 -13.5t-34.5 -36.5q-32 9 -52 20q14 50 -20 84q-33 33 -82 20q-15 27 -22 52q23 13 36.5 34.5t13.5 45.5q0 46 -50 74q9 32 20 52
q46 -12 84 26q34 34 20 84q20 11 52 20q13 -23 34.5 -36.5t45.5 -13.5t45.5 13.5t34.5 36.5q32 -9 52 -20q-14 -50 20 -84q38 -38 84 -26q11 -20 20 -52q-50 -28 -50 -74zM256 81q47 0 79.5 32.5t32.5 78.5t-33 79t-79 33t-78.5 -32.5t-32.5 -79.5q0 -46 32.5 -78.5
t78.5 -32.5z" />
    <glyph glyph-name="uniF017" unicode="&#xf017;" 
d="M300 56l-300 300q0 35 28 64q13 12 29 19t26 8l10 1l298 -299l-14 -50l121 -120q14 -16 14 -21l-6 -17q-8 -5 -16 -5q-6 0 -20 14l-121 121zM135 149q20 0 31.5 -14t11.5 -36q0 -17 -11.5 -30t-31.5 -13q-16 0 -29 13.5t-13 29.5q0 21 12.5 35.5t29.5 14.5z" />
    <glyph glyph-name="uniF018" unicode="&#xf018;" 
d="M305 341q-16 0 -27.5 11t-11.5 27t11.5 27.5t27.5 11.5t27.5 -11.5t11.5 -27.5t-11.5 -27t-27.5 -11zM306 248q-10 0 -16 10l-25 39l-52 -51l49 -25q9 -4 13 -10.5t3 -11.5v-5v-108q0 -9 -6.5 -15.5t-15.5 -6.5t-15.5 6.5t-6.5 15.5v87l-84 45q-17 10 -17 29q0 13 8 21
l82 81q4 5 10.5 7.5t10.5 2.5h4q8 0 14.5 -3.5t9.5 -7.5l2 -4l43 -66h65q11 0 15.5 -7.5t0 -15t-15.5 -7.5h-76zM0 94q0 42 30.5 72t73.5 30t73 -30t30 -72t-30 -72t-73 -30t-73.5 30t-30.5 72zM305 93q0 42 30 71.5t73 29.5t73.5 -29.5t30.5 -71.5t-30.5 -72t-73.5 -30
t-73 30t-30 72zM104 10q35 0 59.5 24.5t24.5 59.5t-24.5 59t-59.5 24t-60 -24.5t-25 -58.5t25 -59t60 -25zM408 10q35 0 60 24.5t25 58.5t-25 58.5t-60 24.5t-59.5 -24.5t-24.5 -58.5t24.5 -58.5t59.5 -24.5z" />
    <glyph glyph-name="uniF019" unicode="&#xf019;" 
d="M233 104l-88 99q-8 8 -8 20t9 21t21 9q14 0 22 -10l37 -41v180q0 12 8.5 20.5t20.5 8.5t21 -8.5t9 -20.5v-180l37 41q8 10 22 10q12 0 21 -9t9 -21t-8 -20l-89 -99q-8 -10 -22 -10t-22 10zM256 -64v0h-226q-12 0 -21 9t-9 21v148q0 12 9 21t21 9t20.5 -9t8.5 -21v-119
h394v119q0 12 8.5 21t20.5 9t21 -9t9 -21v-148q0 -12 -9 -21t-21 -9h-226z" />
    <glyph glyph-name="uniF01A" unicode="&#xf01a;" 
d="M256 335q48 0 91.5 -13t72 -31.5t50.5 -39.5t32 -37t10 -23t-10 -23t-32 -37t-50.5 -40t-72 -32t-91.5 -13t-91.5 13t-72 32t-50.5 40t-32 37t-10 23t10 23t32 37t50.5 39.5t72 31.5t91.5 13zM256 77q46 0 79 33.5t33 80.5t-33 80t-79 33t-79 -33t-33 -80t33 -80.5
t79 -33.5zM256 191q4 -4 19 -1t25 5.5t12 -4.5q0 -23 -16.5 -40t-39.5 -17t-39.5 17t-16.5 40t16.5 40t39.5 17q7 0 5 -12.5t-6 -25t1 -19.5z" />
    <glyph glyph-name="uniF01B" unicode="&#xf01b;" horiz-adv-x="265" 
d="M79 -64v224h-79v96h79v62q0 58 32 90t86 32q50 0 68 -4v-84h-45q-27 0 -36 -10t-9 -33v-53h89l-13 -96h-76v-224h-96z" />
    <glyph glyph-name="uniF01C" unicode="&#xf01c;" horiz-adv-x="513" 
d="M256 333l34 29q38 33 91 31t91 -36q42 -38 41 -89t-43 -89l-214 -193l-214 193q-42 37 -42 89t42 89q38 34 90 36t90 -31z" />
    <glyph glyph-name="uniF01D" unicode="&#xf01d;" 
d="M0 364l7 9l5 1l322 -326q2 -3 8 -7t36.5 -4.5t75.5 11.5q7 0 10 -8q5 -11 -9 -18q-4 -3 -12.5 -5.5t-37.5 -6t-62 7.5q-3 1 -7 5zM488 122q24 0 24 -13t-24 -13q-23 0 -23 13t23 13z" />
    <glyph glyph-name="uniF01E" unicode="&#xf01e;" 
d="M320 384l176 -176q14 -14 15.5 -30t-20.5 -18h-43v-176q0 -16 -16 -16h-112v160h-128v-160h-112q-16 0 -16 16v176h-48q-8 0 -13 6t-2.5 17.5t15.5 24.5l176 176q64 64 128 0z" />
    <glyph glyph-name="uniF01F" unicode="&#xf01f;" horiz-adv-x="236" 
d="M181 449q24 0 37.5 -14.5t13.5 -36.5q0 -26 -20 -45t-49 -19q-24 0 -37.5 13.5t-13.5 37.5q0 22 19 43t50 21zM77 156q8 29 0 29q-6 0 -27.5 -8.5t-36.5 -18.5l-13 22q46 40 96.5 64t78.5 24q38 0 17 -83l-35 -137q-9 -32 3 -32q20 0 60 31l16 -21q-43 -45 -89.5 -67.5
t-72.5 -22.5q-51 0 -28 90z" />
    <glyph glyph-name="uniF020" unicode="&#xf020;" 
d="M0 192q0 28 4.5 32.5t32.5 4.5h438q28 0 32.5 -4.5t4.5 -32.5t-4.5 -32.5t-32.5 -4.5h-438q-28 0 -32.5 4.5t-4.5 32.5z" />
    <glyph glyph-name="uniF021" unicode="&#xf021;" 
d="M0 155v74h512v-74h-512z" />
    <glyph glyph-name="uniF022" unicode="&#xf022;" 
d="M110 338q0 28 4 32.5t32 4.5h329q28 0 32.5 -4.5t4.5 -32.5t-4.5 -32t-32.5 -4h-329q-28 0 -32 4t-4 32zM110 192q0 28 4 32.5t32 4.5h329q28 0 32.5 -4.5t4.5 -32.5t-4.5 -32.5t-32.5 -4.5h-329q-28 0 -32 4.5t-4 32.5zM110 46q0 28 4 32t32 4h329q28 0 32.5 -4t4.5 -32
t-4.5 -32.5t-32.5 -4.5h-329q-28 0 -32 4.5t-4 32.5zM0 338q0 28 4.5 32.5t32.5 4.5q27 0 31.5 -4.5t4.5 -32.5t-4 -32t-32 -4t-32.5 4t-4.5 32zM0 192q0 28 4.5 32.5t32.5 4.5q27 0 31.5 -4.5t4.5 -32.5t-4.5 -32.5t-31.5 -4.5q-28 0 -32.5 4.5t-4.5 32.5zM0 46
q0 28 4.5 32t32.5 4t32 -4t4 -32t-4.5 -32.5t-31.5 -4.5q-28 0 -32.5 4.5t-4.5 32.5z" />
    <glyph glyph-name="uniF023" unicode="&#xf023;" 
d="M110 302v73h402v-73h-402zM110 155v74h402v-74h-402zM110 9v73h402v-73h-402zM0 302v73h73v-73h-73zM0 155v74h73v-74h-73zM0 9v73h73v-73h-73z" />
    <glyph glyph-name="uniF024" unicode="&#xf024;" 
d="M0 338q0 28 4.5 32.5t32.5 4.5h438q28 0 32.5 -4.5t4.5 -32.5t-4.5 -32t-32.5 -4h-438q-28 0 -32.5 4t-4.5 32zM0 192q0 28 4.5 32.5t32.5 4.5h438q28 0 32.5 -4.5t4.5 -32.5t-4.5 -32.5t-32.5 -4.5h-438q-28 0 -32.5 4.5t-4.5 32.5zM0 46q0 28 4.5 32t32.5 4h438
q28 0 32.5 -4t4.5 -32t-4.5 -32.5t-32.5 -4.5h-438q-28 0 -32.5 4.5t-4.5 32.5z" />
    <glyph glyph-name="uniF025" unicode="&#xf025;" 
d="M0 302v73h512v-73h-512zM0 155v74h512v-74h-512zM0 9v73h512v-73h-512z" />
    <glyph glyph-name="uniF026" unicode="&#xf026;" horiz-adv-x="427" 
d="M427 180v-210l-34 -34h-359l-34 34v210l34 33h30v86q0 61 44 105t106 44t105.5 -44t43.5 -105v-86h30zM320 213v86q0 44 -31 75t-75 31t-75.5 -31t-31.5 -75v-86h213zM235 42v64q0 9 -6 15.5t-15 6.5t-15.5 -6.5t-6.5 -15.5v-64q0 -9 6.5 -15t15.5 -6t15 6t6 15z" />
    <glyph glyph-name="uniF027" unicode="&#xf027;" horiz-adv-x="475" 
d="M307 170l-99 -89q-7 -7 -20 -7q-12 0 -21 8.5t-9 20.5q0 14 10 22l42 37h-180q-12 0 -21 9t-9 21t9 21t21 9h180l-42 37q-10 8 -10 22q0 12 9 20.5t21 8.5q13 0 20 -7l99 -89q10 -8 10 -22t-10 -22zM475 193v0v-227q0 -12 -8.5 -20.5t-20.5 -8.5h-149q-12 0 -21 8.5
t-9 20.5t9 21t21 9h119v394h-119q-12 0 -21 8.5t-9 20.5t9 21t21 9h149q12 0 20.5 -9t8.5 -21v-226z" />
    <glyph glyph-name="uniF028" unicode="&#xf028;" horiz-adv-x="475" 
d="M475 192q0 -14 -9 -22l-99 -89q-7 -7 -20 -7q-12 0 -21 8.5t-9 20.5q0 14 10 22l41 37h-180q-12 0 -21 9t-9 21t9 21t21 9h180l-41 37q-10 8 -10 22q0 12 9 20.5t21 8.5q13 0 20 -7l99 -89q9 -8 9 -22zM178 -5q12 0 21 -8.5t9 -20.5t-9 -21t-21 -9h-148q-12 0 -21 9
t-9 21v452q0 12 9 21t21 9h148q12 0 21 -9t9 -21t-9 -20.5t-21 -8.5h-119v-394h119z" />
    <glyph glyph-name="uniF029" unicode="&#xf029;" 
d="M19 357h479q20 0 8 -19q-5 -9 -13 -14q-21 -8 -211 -113q-4 -4 -24 -4q-18 0 -28 4q-3 4 -101.5 56.5t-109.5 56.5q-8 5 -13 12.5t-2.5 14t15.5 6.5zM484 28h-456q-8 0 -18 9t-10 19v207q0 14 14 4q9 -3 102.5 -52t113.5 -60q12 -5 28 -5q12 0 24 5q26 14 117.5 61.5
t103.5 50.5q9 10 9 -4v-207q0 -10 -9 -19t-19 -9z" />
    <glyph glyph-name="uniF02A" unicode="&#xf02a;" 
d="M384 417l122 -76q6 -6 6 -17v-303q0 -11 -6 -17h-12h-5l-111 70l-116 -70h-18l-110 70l-111 -70h-17q-6 6 -6 17v303q0 11 6 17l122 76h18l110 -70l111 70h17zM116 370l-84 -52v-262l84 52v262zM239 312l-88 58v-262l88 -58v262zM361 370l-87 -58v-262l87 58v262z
M483 312l-87 58v-262l87 -58v262z" />
    <glyph glyph-name="uniF02B" unicode="&#xf02b;" 
d="M146 411h366v-73h-87h-279v73zM0 302h512v-110h-121h-391v110zM0 155h146v-73h-34h-112v73zM183 155h329v-182h-78h-251v182zM0 46h146v-73h-34h-112v73zM0 411h110v-73h-26h-84v73z" />
    <glyph glyph-name="uniF02C" unicode="&#xf02c;" 
d="M53 80l270 270l90 -90l-270 -270zM0 -62l30 120l90 -90zM503 395q9 -9 9 -22.5t-9 -22.5l-67 -68l-91 90l68 68q9 9 22.5 9t22.5 -9z" />
    <glyph glyph-name="uniF02D" unicode="&#xf02d;" horiz-adv-x="509" 
d="M295 150q100 111 77 134q-19 19 -24.5 25.5t-12 23t1.5 34.5t28 43q9 11 18 19t17.5 10.5t15.5 4.5t16 -2t14 -5.5t13.5 -9t11.5 -10.5l11.5 -11.5l9.5 -9.5q16 -13 16.5 -44.5t-14.5 -73t-50.5 -93t-85.5 -99.5q-94 -94 -184 -128.5t-119 -5.5q-19 16 -28.5 25t-20.5 27
t-4 36.5t32 38.5q14 12 27 19.5t21.5 12t18.5 3.5t15 -0.5t13.5 -5.5t10.5 -7.5t11 -11t10 -10.5q36 -27 134 71z" />
    <glyph glyph-name="uniF02E" unicode="&#xf02e;" horiz-adv-x="322" 
d="M161 448q67 0 114 -45.5t47 -115.5q0 -68 -40.5 -156t-80.5 -141l-40 -54q-7 8 -17.5 22t-38.5 56.5t-49 83t-38.5 93.5t-17.5 96q0 70 47 115.5t114 45.5zM161 199q37 0 62.5 27t25.5 61q0 38 -25 63t-63 25q-39 0 -63.5 -25t-24.5 -63q0 -34 25 -61t63 -27z" />
    <glyph glyph-name="uniF02F" unicode="&#xf02f;" 
d="M219 155h-182q-15 0 -26 11t-11 26t11 26t26 11h182v182q0 15 11 26t26 11t26 -11t11 -26v-182h182q15 0 26 -11t11 -26t-11 -26t-26 -11h-182v-182q0 -15 -11 -26t-26 -11t-26 11t-11 26v182z" />
    <glyph glyph-name="uniF030" unicode="&#xf030;" 
d="M219 155h-219v74h219v219h74v-219h219v-74h-219v-219h-74v219z" />
    <glyph glyph-name="uniF031" unicode="&#xf031;" 
d="M256 375q49 0 93.5 -19t72.5 -45.5t49.5 -53.5t30.5 -46l10 -19q-3 -7 -9.5 -19.5t-30 -44t-50.5 -55.5t-72 -44t-94 -20t-93.5 19t-72.5 45.5t-49.5 53.5t-30.5 46l-10 19q3 7 9.5 19.5t30 44t50.5 55.5t72 44t94 20zM175 234q-13 0 -13 -14v-14h-41q-13 0 -13 -14
t13 -14h41v-14q0 -14 13 -14q5 0 9.5 4t4.5 10v14h54v-14q0 -14 13 -14t13 14v14h54v-14q0 -6 4.5 -10t9.5 -4q13 0 13 14v14h41q13 0 13 14t-13 14h-41v14q0 14 -13 14q-5 0 -9.5 -4t-4.5 -10v-14h-54v14q0 14 -13 14t-13 -14v-14h-54v14q0 6 -4.5 10t-9.5 4z" />
    <glyph glyph-name="uniF032" unicode="&#xf032;" horiz-adv-x="507" 
d="M441 -61l-120 122q-53 -35 -113 -35q-86 0 -147 62.5t-61 150.5t61 150t147 62t146.5 -62t60.5 -150q0 -62 -31 -112l120 -122q5 -4 1.5 -15t-12.5 -20l-18 -19q-23 -23 -34 -12zM346 239q0 59 -40 100t-98 41t-98.5 -41t-40.5 -100t40.5 -100.5t98.5 -41.5t98 41.5
t40 100.5z" />
    <glyph glyph-name="uniF033" unicode="&#xf033;" 
d="M453 249v-36q14 -8 29 -8q16 0 30 8v-247q0 -12 -9 -21t-21 -9h-452q-12 0 -21 9t-9 21v452q0 12 9 21t21 9h247q-8 -14 -8 -30q0 -15 8 -29h-218v-394h394v254zM364 448h118q12 0 21 -9t9 -21v-118q0 -12 -9 -20.5t-21 -8.5t-20.5 8.5t-8.5 20.5v47l-147 -147
q-8 -8 -20 -8t-21 9t-9 21t8 20l147 147h-47q-12 0 -20.5 8.5t-8.5 20.5t8.5 21t20.5 9z" />
    <glyph glyph-name="uniF034" unicode="&#xf034;" 
d="M183 210q0 -2 -0.5 -4t-0.5 -4l183 -102q24 19 56 19q37 0 64 -27t27 -65q0 -37 -27 -64t-64 -27q-38 0 -65 27t-27 64q0 1 0.5 4t0.5 5l-183 102q-24 -19 -56 -19q-37 0 -64 26.5t-27 64.5t27 65t64 27q36 0 62 -24l176 79q0 37 27 64t65 27q37 0 64 -27t27 -64
q0 -38 -27 -65t-64 -27q-36 0 -62 24z" />
    <glyph glyph-name="uniF035" unicode="&#xf035;" horiz-adv-x="510" 
d="M484 304q46 -95 12 -194.5t-129 -146.5q-54 -26 -112 -26q-74 0 -135.5 38.5t-93.5 105.5q-46 95 -12 195t129 146q54 26 112 26q74 0 135.5 -38.5t93.5 -105.5zM309 403l-9 25q-30 4 -45 4q-55 0 -105 -24l-4 -2l2 -20l68 -3zM133 380l-2 17q-49 -29 -79 -79l35 9z
M320 390l-98 -22l-14 -58l75 -55l82 11l27 80zM413 185l81 -7q3 62 -24 119q-16 30 -26 43l-37 2l-28 -86zM89 312l-48 -12q-30 -59 -25 -124l41 -26l37 18l18 114zM127 278l-17 -112l49 -32l98 32l15 78l-75 55zM349 20l58 -13q73 61 86 156l-82 7l-62 -58v-92zM84 70
l-32 65l-33 21q6 -35 21 -68q15 -30 37 -55zM333 112l-70 39l-95 -32l3 -69l95 -66l67 33v95zM97 56l-7 -38q68 -65 165 -65h6l-2 17l-100 68z" />
    <glyph glyph-name="uniF036" unicode="&#xf036;" horiz-adv-x="511" 
d="M254 448q105 0 180 -75t77 -180q-2 -101 -70.5 -175t-167.5 -80q-3 0 -8 -0.5t-8 -0.5q-96 0 -169 63.5t-86 157.5q-14 110 57 197t179 93h16zM122 -4l11 -7q21 -13 51 -23q36 -11 71 -11q66 0 123 34l11 7l-11 6q-5 3 -5 10q0 4 4 6l22 12l-3 7q-4 9 -5 11l-3 6l-23 -9
q-6 -3 -11 7q-2 6 8 11l20 8l-3 7q-2 4 -4 12l-2 7l-22 -5q-9 -3 -12 8q0 7 7 9l23 5l-2 8q-2 6 -2 10l-1 8l-26 -3q-7 0 -7 9q0 6 9 9l22 2l-1 8q0 2 -0.5 5.5t-0.5 5.5v8h-23q-9 0 -9 9t9 9h23v9q0 7 1 10v8l-23 3q-10 0 -10 9t8 9l27 -4l2 8q0 2 2 10l1 8l-22 5
q-7 1 -7 8q3 12 12 9l22 -5l2 7q1 2 2 6t2 6l2 8l-19 7q-2 0 -5.5 3t-2.5 8q4 9 11 7l23 -9l3 6q1 2 2.5 5.5t2.5 5.5l3 7l-20 11q-4 3 -4 7q0 6 5 9l10 7l-10 6q-22 14 -53 24q-33 10 -70 10q-66 0 -125 -34l-11 -6l11 -7q5 -3 5 -9q0 -3 -4 -7l-21 -11l3 -7q1 -2 3 -5.5
t3 -5.5l3 -6l23 9q8 2 10 -7q1 -5 -2 -8t-5 -3l-20 -7l3 -8q2 -8 4 -12l2 -7l21 5q5 1 8.5 -2t3.5 -7q0 -7 -6 -8l-22 -5l1 -8q1 -2 1 -5t1 -5l1 -8l28 4q7 0 7 -9t-10 -9l-22 -3v-8q0 -1 0.5 -5t0.5 -6v-8h22q9 0 9 -9t-9 -9h-22v-8q0 -2 -0.5 -5.5t-0.5 -5.5l-1 -8l21 -2
q9 0 9 -9t-7 -9l-25 3l-2 -8q0 -4 -2 -10l-1 -8l23 -5q6 -2 6 -9q0 -8 -9 -8h-3l-22 5l-2 -7q0 -2 -2 -6t-2 -6l-2 -7l20 -8q9 -4 7 -11q-3 -11 -10 -7l-24 9l-3 -6q-1 -2 -2.5 -5.5t-2.5 -5.5l-3 -7l22 -12q5 -2 5 -7t-6 -9zM96 39l4 9q0 1 1.5 2.5t1.5 2.5l3 8l-18 7
q-9 5 -7 12q4 9 10 6l22 -8l2 7q2 6 3 8l3 8l-21 5q-6 1 -6 8q3 11 11 9l20 -5l2 8q0 1 0.5 3.5t0.5 4.5l2 8l-20 2q-10 0 -10 10q0 9 8 9l24 -3l1 10q0 4 1 6v8h-23q-8 0 -8 9t8 9h23v8q0 1 -0.5 3t-0.5 3v11l-23 -3q-7 0 -7 9t9 9l18 2l-1 8q-1 2 -1 8l-2 8l-22 -6
q-5 -1 -8 2t-3 7q0 7 6 9l22 5l-2 8q-2 6 -3 8l-3 8l-22 -9q-6 -1 -10 7q-2 7 7 11l19 8l-4 7q-1 1 -2 3.5t-1 3.5l-4 7l-19 -11h-6h-5l-3 -4q-3 -3 -3 -4q-32 -48 -39.5 -106t11.5 -110q13 -35 32 -59l3 -4l5 1q4 0 6 -1zM416 39l18 10q2 1 6 1l5 -1l3 4q45 64 45 139
q0 78 -45 140l-3 4h-5h-5l-20 11l-4 -7q-1 -1 -2 -3.5t-1 -3.5l-4 -8l19 -7q9 -4 7 -11q-4 -8 -10 -7l-22 9l-3 -8l-3 -8l-2 -8l22 -5q6 -2 6 -9q0 -9 -9 -9h-2l-22 6l-1 -8q0 -1 -1 -4t-1 -4l-1 -8l18 -2q9 0 9 -9t-7 -9l-22 3l-1 -11q0 -1 -0.5 -3t-0.5 -3v-8h23q8 0 8 -9
t-8 -9h-22v-8v-5l1 -11l24 3q8 0 8 -9q0 -10 -10 -10l-20 -2l2 -9l1 -7l2 -8l20 5l1 1h2q7 0 9 -10q0 -7 -7 -8l-21 -5l3 -8q1 -2 3 -8l2 -7l22 8q6 3 10 -6q2 -7 -7 -12l-18 -7l3 -8q0 -1 1 -2.5t2 -2.5z" />
    <glyph glyph-name="uniF037" unicode="&#xf037;" 
d="M192 256l64 192l64 -192h192l-160 -128l64 -192l-160 128l-160 -128l64 192l-160 128h192z" />
    <glyph glyph-name="uniF038" unicode="&#xf038;" 
d="M488 208q-10 0 -17 -7t-7 -17v-38l-119 119l-48 48q-7 7 -17 7t-17 -7l-111 -111l-111 111q-7 7 -17 7t-17 -7t-7 -17t7 -17l128 -128q7 -7 17 -7t17 7l111 111l31 -31l2 -2l14 -14l103 -103h-38q-10 0 -17 -7t-7 -17t7 -17t17 -7h96q10 0 17 7t7 17v96q0 10 -7 17t-17 7
v0z" />
    <glyph glyph-name="uniF039" unicode="&#xf039;" 
d="M449 165q-7 7 -17 7t-17 -7.5t-7 -17.5t7 -17l15 -15h-60l-249 253q-7 7 -17 7h-80q-10 0 -17 -7.5t-7 -17.5t7 -17t17 -7h70l249 -253q7 -7 17 -7h70l-15 -15q-7 -7 -7 -17t7 -17.5t17 -7.5t17 7l56 57q7 7 7 17q0 11 -7 18l-56 57v0z" />
    <glyph glyph-name="uniF03A" unicode="&#xf03a;" 
d="M464 200v38l-119 -119l-48 -48q-7 -7 -17 -7t-17 7l-111 111l-111 -111q-7 -7 -17 -7t-17 7t-7 17t7 17l128 128q7 7 17 7t17 -7l111 -111l31 31l2 2l14 14l103 103h-38q-10 0 -17 7t-7 17t7 17t17 7h96q10 0 17 -7t7 -17v-96q0 -10 -7 -17t-17 -7t-17 7t-7 17z" />
    <glyph glyph-name="uniF03B" unicode="&#xf03b;" 
d="M449 219q-7 -7 -17 -7t-17 7.5t-7 17.5t7 17l15 15h-60l-249 -253q-7 -7 -17 -7h-80q-10 0 -17 7.5t-7 17.5t7 17t17 7h70l249 253q7 7 17 7h70l-15 15q-7 7 -7 17t7 17.5t17 7.5t17 -7l56 -57q7 -7 7 -17q0 -11 -7 -18l-56 -57v0z" />
    <glyph glyph-name="uniF03C" unicode="&#xf03c;" horiz-adv-x="439" 
d="M183 82v293h73v-293h-73zM37 82v110h73v-110h-73zM329 82v183h73v-183h-73zM0 9v37h439v-37h-439z" />
    <glyph glyph-name="uniF03D" unicode="&#xf03d;" horiz-adv-x="439" 
d="M37 82v293h73v-293h-73zM183 82v183h73v-183h-73zM329 82v110h73v-110h-73zM0 9v37h439v-37h-439z" />
    <glyph glyph-name="uniF03E" unicode="&#xf03e;" horiz-adv-x="439" 
d="M37 338q0 28 4.5 32.5t31.5 4.5q28 0 32.5 -4.5t4.5 -32.5v-219q0 -28 -4.5 -32.5t-32.5 -4.5q-27 0 -31.5 4.5t-4.5 32.5v219zM183 229q0 28 4 32t32 4t32.5 -4.5t4.5 -31.5v-110q0 -28 -4.5 -32.5t-32.5 -4.5q-27 0 -31.5 4.5t-4.5 32.5v110zM329 155q0 28 4.5 32.5
t32.5 4.5t32 -4.5t4 -32.5v-36q0 -28 -4 -32.5t-32 -4.5t-32.5 4.5t-4.5 32.5v36zM0 27q0 14 5 16.5t32 2.5h365q27 0 32 -2.5t5 -16.5q0 -13 -4.5 -15.5t-32.5 -2.5h-365q-28 0 -32.5 2.5t-4.5 15.5z" />
    <glyph glyph-name="uniF03F" unicode="&#xf03f;" horiz-adv-x="439" 
d="M37 155q0 28 4.5 32.5t31.5 4.5q28 0 32.5 -4.5t4.5 -32.5v-36q0 -28 -4.5 -32.5t-32.5 -4.5q-27 0 -31.5 4.5t-4.5 32.5v36zM183 338q0 28 4.5 32.5t31.5 4.5q28 0 32.5 -4.5t4.5 -32.5v-219q0 -28 -4.5 -32.5t-32.5 -4.5q-27 0 -31.5 4.5t-4.5 32.5v219zM329 229
q0 27 4.5 31.5t32.5 4.5t32 -4t4 -32v-110q0 -28 -4 -32.5t-32 -4.5t-32.5 4.5t-4.5 32.5v110zM0 27q0 14 5 16.5t32 2.5h365q27 0 32 -2.5t5 -16.5q0 -13 -4.5 -15.5t-32.5 -2.5h-365q-28 0 -32.5 2.5t-4.5 15.5z" />
    <glyph glyph-name="uniF040" unicode="&#xf040;" horiz-adv-x="439" 
d="M37 82v110h73v-110h-73zM183 82v183h73v-183h-73zM329 82v293h73v-293h-73zM0 9v37h439v-37h-439z" />
    <glyph glyph-name="uniF041" unicode="&#xf041;" horiz-adv-x="439" 
d="M37 155q0 28 4.5 32.5t31.5 4.5q28 0 32.5 -4.5t4.5 -32.5v-36q0 -28 -4.5 -32.5t-32.5 -4.5q-27 0 -31.5 4.5t-4.5 32.5v36zM183 229q0 28 4 32t32 4t32.5 -4.5t4.5 -31.5v-110q0 -28 -4.5 -32.5t-32.5 -4.5q-27 0 -31.5 4.5t-4.5 32.5v110zM329 338q0 28 4.5 32.5
t32.5 4.5t32 -4.5t4 -32.5v-219q0 -28 -4 -32.5t-32 -4.5t-32.5 4.5t-4.5 32.5v219zM0 27q0 14 5 16.5t32 2.5h365q27 0 32 -2.5t5 -16.5q0 -13 -4.5 -15.5t-32.5 -2.5h-365q-28 0 -32.5 2.5t-4.5 15.5z" />
    <glyph glyph-name="uniF042" unicode="&#xf042;" 
d="M335 411q24 0 29 -21q5 -25 -15 -35l-91 -48l127 -192q-26 -12 -39 -12t-39.5 15.5t-50.5 15.5t-50.5 -15.5t-39.5 -15.5t-41 13t-44 16l142 115l-37 52q-8 11 -4 26t16 21l120 61q8 4 17 4zM392 317q25 0 42.5 -18t17.5 -44t-17.5 -44.5t-42.5 -18.5t-43 18.5t-18 44.5
t18 44t43 18zM60 67q24 0 58.5 -16t47.5 -16t39.5 16t50.5 16t50.5 -16t39.5 -16t47.5 16t58.5 16q12 0 60 -20v-64q-39 21 -60 21q-13 0 -47.5 -15.5t-58.5 -15.5t-50.5 15.5t-39.5 15.5t-39.5 -15.5t-50.5 -15.5t-58.5 15.5t-47.5 15.5t-28 -5t-24 -11l-8 -5v64
q6 2 18.5 8t22.5 9t19 3z" />
    <glyph glyph-name="uniF043" unicode="&#xf043;" 
d="M342 84l-8 8q-29 29 -118 48q-7 2 -15.5 4t-19 4.5t-16.5 3.5q-24 6 -37 12q-46 18 -78 49q-45 45 -49 102.5t35 96.5q40 39 96.5 35t101.5 -49q32 -32 50 -78q9 -22 12 -36q3 -11 7 -30t5 -22q7 -32 11 -47t13.5 -36.5t22.5 -34.5l9 -8zM151 418l-3 4q-15 4 -37 2l-1 -1
l23 -23zM78 404l16 17q-9 -2 -23 -11zM126 393l-23 23l-19 -19l23 -23zM188 396l6 5q-8 5 -24 13zM181 388l-23 24l-18 -18l23 -24zM70 397l-7 7q-6 -3 -11 -8q-4 -4 -8 -10l8 -7zM225 373l-7 9q-10 10 -16 14l-7 -7l23 -23zM77 390l-18 -18l23 -23l18 18zM156 363l-24 23
l-18 -18l23 -23zM170 363l23 -23l18 19l-23 23zM45 371l-7 7q-8 -13 -11 -24zM225 360l25 -22q-5 10 -19 28zM75 342l-24 23l-18 -19l23 -23zM130 337l-23 23l-18 -18l23 -23zM185 333l-23 23l-18 -18l23 -23zM199 334l23 -23l19 18l-23 23zM26 339l-3 -2q-1 -15 2 -34l6 -5
l18 18zM63 316l23 -22l18 18l-23 23zM118 312l23 -23l19 19l-23 23zM215 303l-23 23l-18 -18l23 -23zM252 281l16 15q-3 8 -4 10l-16 16l-19 -18zM79 286l-23 23l-19 -18l23 -23zM93 287l23 -23l18 18l-23 23zM148 282l23 -23l19 19l-23 23zM204 278l23 -23l18 19l-23 22z
M259 274l17 -17q-3 20 -3 22q-2 4 -2 7zM53 260l-21 22q7 -18 14 -28zM109 256l-24 23l-18 -18l23 -23zM123 257l23 -23l18 18l-23 23zM178 253l23 -23l18 18l-23 23zM233 248l35 -35q7 17 8 29l-24 25zM60 254l-8 -8q4 -6 14 -16q6 -6 9 -8l8 8zM97 231l23 -23l18 18
l-23 24zM152 227l24 -23l18 18l-23 23zM208 223l37 -37q3 2 8 7l2 1q6 6 8 10l-37 37zM90 224l-8 -8q14 -11 28 -18l3 3zM146 182l6 -2l16 16l-23 24l-18 -19zM182 197l25 -25q14 1 29 8l-35 36zM271 178l-2 -2q-10 -10 -26 -18q42 -10 69 -23q-11 23 -22 69q-8 -16 -18 -26
h-1zM162 177l6 -2q12 -3 25 -3l-18 18zM512 -42l-22 -22l-138 138l22 22zM117 73q14 0 24 -10t10 -23q0 -14 -10 -24t-24 -10t-23.5 10t-9.5 24t9.5 23.5t23.5 9.5z" />
    <glyph glyph-name="uniF044" unicode="&#xf044;" 
d="M512 384v-64h-64v-288q0 -40 -28.5 -68t-67.5 -28h-192q-40 0 -68 28t-28 68v288h-64v64h128q0 27 19 45.5t45 18.5h128q26 0 45 -18.5t19 -45.5h128zM192 192q14 0 23 9t9 23q0 12 -9.5 22t-22.5 10t-22.5 -10t-9.5 -22q0 -14 9 -23t23 -9zM320 192q14 0 23 9t9 23
q0 12 -9.5 22t-22.5 10t-22.5 -10t-9.5 -22q0 -14 9 -23t23 -9zM192 64q14 0 23 9t9 23q0 12 -9.5 22t-22.5 10t-22.5 -10t-9.5 -22q0 -14 9 -23t23 -9zM320 64q14 0 23 9t9 23q0 12 -9.5 22t-22.5 10t-22.5 -10t-9.5 -22q0 -14 9 -23t23 -9z" />
    <glyph glyph-name="uniF045" unicode="&#xf045;" 
d="M288 64v-32q42 -5 69 -19t27 -29q0 -20 -39 -34t-89 -14q-53 0 -90.5 13.5t-37.5 34.5q0 15 29 29t67 19v32q0 8 -1 15t-4 13t-5 11t-8 10.5t-9 9t-11.5 9.5t-12 8.5t-14.5 9.5t-15 10q-33 22 -51 36t-43.5 40.5t-37.5 59t-12 72.5q0 32 16 32h112q7 19 38.5 33.5
t89.5 14.5q54 0 93 -15t51 -33h96q16 0 16 -32q0 -40 -11.5 -72.5t-34 -56.5t-41 -39t-46.5 -33q-8 -5 -11 -7q-4 -3 -17 -11t-16.5 -11t-13 -10t-12.5 -10.5t-8.5 -10.5t-7.5 -12.5t-3.5 -13.5t-1.5 -17zM256 413q-36 0 -61.5 -8.5t-35 -18.5t-9.5 -18q0 -5 9.5 -14
t35.5 -18t61 -9q32 0 56.5 9.5t34 19t9.5 14.5q0 8 -9.5 17.5t-33.5 17.5t-57 8zM120 352h-72q9 -94 96 -144q-24 50 -24 144zM465 352h-57q0 -61 -40 -144q88 52 97 144z" />
    <glyph glyph-name="uniF046" unicode="&#xf046;" 
d="M512 354q-16 -28 -51 -56v-13q0 -53 -20 -105.5t-56.5 -96t-94.5 -71t-128 -27.5q-89 0 -162 49q12 -3 26 -3q71 0 130 46q-34 0 -61 20.5t-36 51.5q3 0 9 -1.5t9 -1.5q12 0 28 6q-37 8 -61 36t-24 66v2q23 -12 49 -12q-46 30 -46 87q0 25 13 51q38 -48 95.5 -77
t122.5 -33q-3 8 -3 26q0 43 30.5 74t74.5 31q43 0 77 -34q36 8 66 26q-12 -39 -46 -59q32 3 59 18z" />
    <glyph glyph-name="uniF047" unicode="&#xf047;" horiz-adv-x="427" 
d="M427 179v-209l-34 -34h-359l-34 34v209l34 34h30v85q0 62 44 106t106 44q61 0 105 -44t44 -106q0 -9 -6 -15t-15 -6t-15.5 6t-6.5 15q0 44 -31 75.5t-75 31.5t-75.5 -31.5t-31.5 -75.5v-85h286zM182 53h64q9 0 15 6t6 15t-6 15.5t-15 6.5h-64q-9 0 -15.5 -6.5t-6.5 -15.5
t6.5 -15t15.5 -6z" />
    <glyph glyph-name="uniF048" unicode="&#xf048;" 
d="M279 280l88 -99q8 -8 8 -20t-9 -21t-21 -9q-14 0 -22 10l-37 41v-180q0 -12 -8.5 -20.5t-20.5 -8.5t-21 8.5t-9 20.5v180l-37 -41q-8 -10 -22 -10q-12 0 -21 9t-9 21t8 20l89 99q8 10 22 10t22 -10zM256 448v0h226q12 0 21 -9t9 -21v-148q0 -12 -9 -21t-21 -9t-20.5 9
t-8.5 21v119h-394v-119q0 -12 -8.5 -21t-20.5 -9t-21 9t-9 21v148q0 12 9 21t21 9h226z" />
    <glyph glyph-name="uniF049" unicode="&#xf049;" 
d="M512 -39v0q0 -10 -7 -17.5t-17 -7.5h-464q-10 0 -17 7.5t-7 17.5v0q0 4 0.5 10t4 23.5t9.5 32.5t19 31.5t31 25.5q20 11 35 13t39 12l62 29v49q-18 14 -24 60q-8 -2 -11.5 6t-4.5 20l-1 9q-1 8 -1 11.5t0.5 10t2.5 9t6 1.5q-5 40 -4 54q3 30 28.5 54t64.5 26
q44 -2 67 -25t26 -55q1 -15 -4 -54q4 1 6 -1.5t2.5 -9t0.5 -10t-1 -11.5l-1 -9q-1 -12 -4.5 -20t-11.5 -6q-3 -20 -9 -35t-11 -20l-4 -5v-49q12 -7 62 -28q24 -10 38.5 -12.5t35.5 -13.5q28 -15 44 -45.5t18 -54.5z" />
    <glyph glyph-name="uniF04A" unicode="&#xf04a;" horiz-adv-x="511" 
d="M327 115q21 -10 32.5 -32t12.5 -39l1 -17v0q0 -18 -17 -18h-338q-8 0 -13 5.5t-5 12.5v0q0 3 0.5 7.5t3 17t6.5 23t14 22.5t23 18q15 8 25.5 9.5t28.5 8.5l45 20v35q-14 11 -18 44q-5 -1 -8.5 5t-3.5 13q0 2 -0.5 6.5t-0.5 8t0.5 8t2 6.5t4.5 1q-4 31 -3 38q2 22 20.5 39
t47.5 18q62 -3 68 -57q1 -7 -3 -38q9 2 6 -23q0 -2 -1 -5v-2q0 -7 -3.5 -13t-8.5 -5q-2 -15 -6.5 -25.5t-8.5 -14.5l-3 -3l1 -35q8 -5 44 -20q17 -7 28.5 -9t26.5 -10zM511 25v0q0 -16 -16 -16h-118q15 3 15 20v0q0 8 -1.5 21t-14.5 40t-37 39q-12 6 -35 12v31
q-12 10 -16 40q-4 -1 -6 2t-3 6.5t-1 7.5q0 1 -0.5 5.5t-0.5 8t0.5 7t1.5 5.5t4 1q-4 29 -3 35q2 20 19 35.5t43 16.5q57 -3 61 -52q1 -6 -3 -35q3 1 4 -1t1.5 -5.5t0.5 -7t-0.5 -8t-0.5 -5.5q0 -4 -1 -7.5t-3 -6.5t-6 -2q-2 -13 -6 -23t-7 -13l-4 -4l1 -31q7 -5 40 -19
q16 -7 26 -8.5t24 -8.5q19 -9 29.5 -29t11.5 -36z" />
    <glyph glyph-name="uniF04B" unicode="&#xf04b;" horiz-adv-x="383" 
d="M140 192l-129 129q-11 11 -11 26t11 26t26 11t26 -11l129 -129l129 129q11 11 26 11t26 -11t11 -26t-11 -26l-130 -129l130 -129q11 -11 11 -26t-11 -26t-26 -11t-26 11l-129 129l-129 -129q-11 -11 -26 -11t-26 11t-11 26t11 26z" />
    <glyph glyph-name="uniF04C" unicode="&#xf04c;" horiz-adv-x="414" 
d="M155 192l-155 155l52 52l155 -155l155 155l52 -52l-155 -155l155 -155l-52 -52l-155 155l-155 -155l-52 52z" />
  </font>
</defs>
</svg>
