<?xml version="1.0" encoding="UTF-8" standalone="no"?>
<svg width="200px" height="67px" viewBox="0 0 200 67" version="1.1" xmlns="http://www.w3.org/2000/svg" xmlns:xlink="http://www.w3.org/1999/xlink" xmlns:sketch="http://www.bohemiancoding.com/sketch/ns">
    <title>android</title>
    <description>Created with Sketch (http://www.bohemiancoding.com/sketch)</description>
    <defs>
        <linearGradient x1="50%" y1="0%" x2="50%" y2="100%" id="linearGradient-1">
            <stop stop-color="#2E2E2E" offset="0%"></stop>
            <stop stop-color="#181818" offset="100%"></stop>
        </linearGradient>
        <linearGradient x1="60.1021726%" y1="91.9928111%" x2="33.503784%" y2="-59.2357623%" id="linearGradient-2">
            <stop stop-color="#D7E69D" offset="0%"></stop>
            <stop stop-color="#94C4AA" offset="44.56%"></stop>
            <stop stop-color="#01A4B6" offset="100%"></stop>
        </linearGradient>
        <linearGradient x1="-32.0268713%" y1="-128.917703%" x2="80.4591979%" y2="114.278505%" id="linearGradient-3">
            <stop stop-color="#ED277B" offset="0%"></stop>
            <stop stop-color="#EE2F7C" offset="1.92%"></stop>
            <stop stop-color="#F7BD81" offset="70.39%"></stop>
            <stop stop-color="#FEEB74" offset="100%"></stop>
        </linearGradient>
        <linearGradient x1="50.9044134%" y1="74.7271681%" x2="-0.0151517298%" y2="-29.4368979%" id="linearGradient-4">
            <stop stop-color="#89CFBD" offset="0%"></stop>
            <stop stop-color="#7DBEBB" offset="9.07%"></stop>
            <stop stop-color="#457CAC" offset="53.96%"></stop>
            <stop stop-color="#1C5AA2" offset="85.23%"></stop>
            <stop stop-color="#084D9F" offset="100%"></stop>
        </linearGradient>
        <linearGradient x1="119.296072%" y1="35.663317%" x2="-22.9924138%" y2="61.1688682%" id="linearGradient-5">
            <stop stop-color="#F04A2B" offset="0%"></stop>
            <stop stop-color="#B54F6B" offset="47.04%"></stop>
            <stop stop-color="#8B5191" offset="83.53%"></stop>
            <stop stop-color="#7851A1" offset="100%"></stop>
        </linearGradient>
    </defs>
    <g id="Page-1" stroke="none" stroke-width="1" fill="none" fill-rule="evenodd" sketch:type="MSPage">
        <g id="android" sketch:type="MSLayerGroup">
            <rect id="Rectangle-1" fill="url(#linearGradient-1)" sketch:type="MSShapeGroup" x="0" y="0" width="200" height="67" rx="8"></rect>
            <g id="Group-+-Group-+-Group" transform="translate(15.000000, 11.000000)" sketch:type="MSShapeGroup">
                <g id="Group" transform="translate(0.000000, 6.000000)">
                    <path d="M20.076,20.2942857 L26.0862,14.1614286 L26.0848,14.1614286 L20.076,20.2942857 L0.8974,0.721428571 L20.076,20.2971429 L0.8652,39.8985714 L20.076,20.2971429 L26.1128,26.4557143 L26.1156,26.4557143 L20.076,20.2942857 Z" id="Shape"></path>
                    <path d="M26.0848,14.1614286 L2.6684,1.02571429 C2.0062,0.654285714 1.3916,0.568571429 0.896,0.724285714 L20.076,20.2942857 L26.0848,14.1614286 L26.0848,14.1614286 Z" id="Shape" fill="url(#linearGradient-2)"></path>
                    <path d="M26.1156,26.4557143 L34.1082,21.9685714 C35.7294,21.0514286 35.7294,19.5671429 34.1082,18.6628571 L26.0862,14.1657143 L20.0774,20.2957143 L26.1156,26.4557143 L26.1156,26.4557143 Z" id="Shape" fill="url(#linearGradient-3)"></path>
                    <path d="M0.8974,0.721428571 C0.1848,0.95 -0.2772,1.68714286 -0.2772,2.8 L-0.273,37.8285714 C-0.273,38.93 0.175,39.6514286 0.8652,39.8957143 L20.0774,20.29 L0.8974,0.721428571 L0.8974,0.721428571 Z" id="Shape" fill="url(#linearGradient-4)"></path>
                    <path d="M0.8652,39.8985714 C1.3636,40.0714286 1.9908,39.9871429 2.6684,39.6114286 L26.1128,26.4557143 L20.076,20.2957143 L0.8652,39.8985714 L0.8652,39.8985714 Z" id="Shape" fill="url(#linearGradient-5)"></path>
                </g>
                <g id="Group" transform="translate(46.000000, 16.000000)" fill="#FFFFFF">
                    <path d="M89.8633136,19.2555 C89.0701538,19.2555 88.3466982,19.10625 87.692213,18.807 C87.0369941,18.5085 86.4866982,18.04875 86.0427929,17.42775 L85.9092544,17.42775 C85.9980355,18.1545 86.0427929,18.84375 86.0427929,19.494 L86.0427929,24.6135 L84.1996686,24.6135 L84.1996686,6.5865 L85.6986746,6.5865 L85.9532781,8.289 L86.0427929,8.289 C86.5167811,7.608 87.0685444,7.116 87.6973491,6.813 C88.3268876,6.51075 89.0488757,6.35925 89.8633136,6.35925 C91.4782485,6.35925 92.7233846,6.92325 93.6001893,8.0505 C94.4777278,9.1785 94.9172308,10.76025 94.9172308,12.7965 C94.9172308,14.8395 94.4703905,16.4265 93.5789112,17.559 C92.6859645,18.69 91.4481657,19.2555 89.8633136,19.2555 L89.8633136,19.2555 Z M89.5962367,7.95975 C88.352568,7.95975 87.4537515,8.3115 86.8983195,9.01575 C86.3436213,9.72 86.0582012,10.83975 86.0427929,12.3765 L86.0427929,12.7965 C86.0427929,14.54475 86.3274793,15.795 86.8983195,16.54875 C87.468426,17.301 88.3826509,17.6775 89.6409941,17.6775 C90.692426,17.6775 91.5164024,17.2425 92.1129231,16.3725 C92.7087101,15.5025 93.0073373,14.3025 93.0073373,12.77325 C93.0073373,11.22225 92.7087101,10.03125 92.1129231,9.20325 C91.5164024,8.3745 90.6784852,7.95975 89.5962367,7.95975 L89.5962367,7.95975 Z" id="Fill-1"></path>
                    <path d="M97.3422012,1.36425 L99.1853254,1.36425 L99.1853254,19.02825 L97.3422012,19.02825 L97.3422012,1.36425 Z" id="Fill-2"></path>
                    <path d="M109.784024,19.02825 L109.41716,17.2575 L109.328379,17.2575 C108.72232,18.0375 108.11626,18.5655 107.512402,18.84075 C106.909278,19.1175 106.15574,19.2555 105.252521,19.2555 C104.046272,19.2555 103.100497,18.9375 102.415195,18.3015 C101.729893,17.66625 101.387976,16.7625 101.387976,15.58875 C101.387976,13.07625 103.353633,11.76 107.284947,11.6385 L109.351124,11.57025 L109.351124,10.79775 C109.351124,9.822 109.146414,9.1005 108.734793,8.6355 C108.323905,8.16975 107.665751,7.93725 106.763266,7.93725 C105.748521,7.93725 104.600237,8.25525 103.320615,8.8905 L102.753444,7.449 C103.353633,7.116 104.01032,6.855 104.725704,6.666 C105.440355,6.477 106.15574,6.38175 106.874793,6.38175 C108.325373,6.38175 109.401751,6.711 110.100994,7.3695 C110.800237,8.028 111.149491,9.084 111.149491,10.53675 L111.149491,19.02825 L109.784024,19.02825 L109.784024,19.02825 Z M105.619385,17.70075 C106.767669,17.70075 107.668686,17.379 108.323905,16.73625 C108.978391,16.09275 109.307101,15.192 109.307101,14.03325 L109.307101,12.90975 L107.462509,12.9885 C105.996521,13.0425 104.939953,13.27425 104.292805,13.6875 C103.644923,14.1 103.320615,14.74125 103.320615,15.61125 C103.320615,16.293 103.521657,16.81125 103.925941,17.16675 C104.329491,17.52225 104.892994,17.70075 105.619385,17.70075 L105.619385,17.70075 Z" id="Fill-3"></path>
                    <path d="M112.22,6.5865 L114.196663,6.5865 L116.861562,13.6815 C117.446343,15.3015 117.811006,16.47075 117.951148,17.19 L118.039929,17.19 C118.136047,16.803 118.337822,16.143 118.644521,15.20775 C118.952686,14.27325 119.95716,11.4 121.659408,6.5865 L123.637538,6.5865 L118.406793,20.754 C117.888047,22.15425 117.283456,23.14725 116.589349,23.73525 C115.897444,24.321 115.047787,24.6135 114.041846,24.6135 C113.478343,24.6135 112.923645,24.549 112.374817,24.42075 L112.374817,22.91175 C112.782036,23.0025 113.23768,23.0475 113.741751,23.0475 C115.007432,23.0475 115.910651,22.3215 116.452142,20.868 L117.128639,19.09725 L112.22,6.5865" id="Fill-4"></path>
                    <path d="M55.7119527,7.74225 C56.2974675,8.23725 57.5191243,9.2775 57.5191243,11.256 C57.5191243,13.1805 56.4493491,14.09325 55.3803077,14.95125 C55.0493964,15.28875 54.6671243,15.65475 54.6671243,16.22775 C54.6671243,16.7985 55.0493964,17.11125 55.3304142,17.346 L56.247574,18.0735 C57.3665089,19.0365 58.3841893,19.92225 58.3841893,21.7185 C58.3841893,24.16425 56.0670769,26.63625 51.6889231,26.63625 C47.9975385,26.63625 46.2160473,24.84075 46.2160473,22.914 C46.2160473,21.97725 46.6716923,20.6505 48.176568,19.7385 C49.7533491,18.75 51.8943669,18.621 53.0389822,18.5415 C52.6809231,18.0735 52.2751716,17.5785 52.2751716,16.773 C52.2751716,16.33125 52.4028402,16.071 52.5290414,15.7575 C52.2480237,15.78375 51.9684734,15.80925 51.7131361,15.80925 C49.0166864,15.80925 47.4890651,13.7535 47.4890651,11.72475 C47.4890651,10.527 48.0232189,9.1995 49.1164734,8.23725 C50.5685207,7.014 52.2993846,6.8055 53.6751243,6.8055 L58.9190769,6.8055 L57.2894675,7.74225 L55.7119527,7.74225 L55.7119527,7.74225 Z M53.9047811,19.29825 C53.7015385,19.2705 53.5724024,19.2705 53.32,19.2705 C53.0903432,19.2705 51.7131361,19.32375 50.6455621,19.689 C50.0857278,19.89525 48.4561183,20.52 48.4561183,22.36875 C48.4561183,24.21525 50.2126627,25.545 52.9369941,25.545 C55.3803077,25.545 56.6804734,24.345 56.6804734,22.7325 C56.6804734,21.4035 55.8388876,20.703 53.9047811,19.29825 L53.9047811,19.29825 Z M54.6429112,14.35275 C55.2269586,13.7535 55.2775858,12.921 55.2775858,12.45225 C55.2775858,10.5795 54.1843314,7.66425 52.071929,7.66425 C51.4086391,7.66425 50.6961893,8.0025 50.2889704,8.52375 C49.856071,9.0705 49.7284024,9.77175 49.7284024,10.44975 C49.7284024,12.19275 50.7218698,15.081 52.9113136,15.081 C53.5474556,15.081 54.2342249,14.769 54.6429112,14.35275 L54.6429112,14.35275 Z" id="Fill-5"></path>
                    <path d="M39.6844024,18.88125 C35.6437633,18.88125 33.4829349,15.65925 33.4829349,12.7485 C33.4829349,9.34425 36.2021302,6.43575 40.0666746,6.43575 C43.8013491,6.43575 46.1404734,9.423 46.1404734,12.56775 C46.1404734,15.63225 43.828497,18.88125 39.6844024,18.88125 L39.6844024,18.88125 Z M42.8614438,16.77675 C43.4719053,15.945 43.6252544,14.90625 43.6252544,13.8915 C43.6252544,11.6055 42.5576805,7.2405 39.4055858,7.2405 C38.5662012,7.2405 37.7275503,7.57875 37.1178225,8.1255 C36.1265562,9.03375 35.9475266,10.1775 35.9475266,11.29575 C35.9475266,13.866 37.1933964,18.1005 40.2699172,18.1005 C41.2604497,18.1005 42.2781302,17.60775 42.8614438,16.77675 L42.8614438,16.77675 Z" id="Fill-6"></path>
                    <path d="M25.9071953,18.88125 C21.8658225,18.88125 19.7049941,15.65925 19.7049941,12.7485 C19.7049941,9.34425 22.4249231,6.43575 26.2894675,6.43575 C30.0248757,6.43575 32.3632663,9.423 32.3632663,12.56775 C32.3632663,15.63225 30.0512899,18.88125 25.9071953,18.88125 L25.9071953,18.88125 Z M29.0849704,16.77675 C29.6946982,15.945 29.8480473,14.90625 29.8480473,13.8915 C29.8480473,11.6055 28.7797396,7.2405 25.627645,7.2405 C24.7897278,7.2405 23.9503432,7.57875 23.3398817,8.1255 C22.3486154,9.03375 22.1710533,10.1775 22.1710533,11.29575 C22.1710533,13.866 23.4161893,18.1005 26.4927101,18.1005 C27.4839763,18.1005 28.5001893,17.60775 29.0849704,16.77675 L29.0849704,16.77675 Z" id="Fill-7"></path>
                    <path d="M17.7635503,18.474 L14.1081183,19.33575 C12.6252544,19.572 11.2972071,19.779 9.89211834,19.779 C2.8387929,19.779 0.156284024,14.4765 0.156284024,10.323 C0.156284024,5.25525 3.96286391,0.555 10.480568,0.555 C11.8607101,0.555 13.1887574,0.7635 14.3898698,1.10325 C16.3063669,1.6515 17.2007811,2.33025 17.7635503,2.7225 L15.6416095,4.7865 L14.747929,4.99425 L15.3862722,3.94875 C14.5182722,3.08775 12.9319527,1.49475 9.91779882,1.49475 C5.88009467,1.49475 2.8387929,4.6305 2.8387929,9.20175 C2.8387929,14.11125 6.31446154,18.73425 11.8841893,18.73425 C13.5218698,18.73425 14.3634556,18.39525 15.1302012,18.081 L15.1302012,13.8765 L11.2722604,14.085 L13.3156923,12.96075 L18.7335385,12.96075 L18.0695148,13.61325 C17.8897515,13.77075 17.8648047,13.824 17.8134438,14.031 C17.7870296,14.2665 17.7635503,15.02475 17.7635503,15.28575 L17.7635503,18.474" id="Fill-8"></path>
                    <path d="M63.7902959,17.72175 C62.9457751,17.643 62.7696805,17.487 62.7696805,16.467 L62.7696805,1.683 C62.7740828,1.626 62.7777515,1.569 62.7821538,1.51425 C62.8856095,0.60075 63.1409467,0.444 63.9348402,-0.027 L60.2786746,-0.027 L58.3614438,0.9135 L60.3146272,0.9135 L60.3146272,0.9255 L60.3131598,0.91575 L60.3131598,17.043 C60.3131598,17.56425 60.2133728,17.643 59.6241893,18.426 L64.148355,18.426 L65.0941302,17.853 C64.6597633,17.799 64.223929,17.7735 63.7902959,17.72175" id="Fill-9"></path>
                    <path d="M74.1879527,17.96175 C73.9098698,18.11775 73.6310533,18.3 73.3529704,18.429 C72.5128521,18.81825 71.6499882,18.9225 70.887645,18.9225 C70.0783432,18.9225 68.8082604,18.8685 67.5132308,17.91 C65.711929,16.61175 64.9246391,14.38125 64.9246391,12.43575 C64.9246391,8.41575 68.1236923,6.444 70.7372308,6.444 C71.6499882,6.444 72.5906272,6.67725 73.3529704,7.17075 C74.6193846,8.025 74.9502959,9.141 75.1271243,9.73725 L69.1641183,12.20325 L67.2094675,12.3585 C67.8426746,15.65325 70.0247811,17.57175 72.4372781,17.57175 C73.7308402,17.57175 74.6714793,17.10525 75.5336095,16.665 L74.1879527,17.96175 L74.1879527,17.96175 Z M71.8033373,10.23075 C72.2853964,10.04925 72.5385325,9.89325 72.5385325,9.53025 C72.5385325,8.49375 71.3968521,7.299 70.0247811,7.299 C69.0093018,7.299 67.1074793,8.10375 67.1074793,10.90575 C67.1074793,11.346 67.1573728,11.81325 67.1845207,12.28125 L71.8033373,10.23075 L71.8033373,10.23075 Z" id="Fill-10"></path>
                    <path d="M76.6371361,6.62175 L76.6371361,8.33325 L76.4338935,8.33325 L76.4338935,6.62175 L75.8806627,6.62175 L75.8806627,6.444 L77.1918343,6.444 L77.1918343,6.62175 L76.6371361,6.62175" id="Fill-11"></path>
                    <path d="M78.9197633,8.33325 L78.9197633,6.60525 L78.9116923,6.60525 L78.3958817,8.33325 L78.2366627,8.33325 L77.7164497,6.60525 L77.7091124,6.60525 L77.7091124,8.33325 L77.524213,8.33325 L77.524213,6.444 L77.8411834,6.444 L78.3122367,7.971 L78.3181065,7.971 L78.7825562,6.444 L79.1031953,6.444 L79.1031953,8.33325 L78.9197633,8.33325" id="Fill-12"></path>
                </g>
                <g id="Group" transform="translate(46.000000, 0.000000)" fill="#D5D5D5">
                    <path d="M4.87121127,7.33511111 C4.50343662,7.488 4.13205634,7.56444444 3.75707042,7.56444444 C3.16574648,7.56444444 2.63391549,7.46311111 2.16157746,7.26044444 C1.68923944,7.05777778 1.2908169,6.77866667 0.966309859,6.42311111 C0.641802817,6.06755556 0.393014085,5.64977778 0.219943662,5.16977778 C0.0468732394,4.68977778 -0.0396619718,4.17244444 -0.0396619718,3.61777778 C-0.0396619718,3.04888889 0.0468732394,2.52088889 0.219943662,2.03377778 C0.393014085,1.54666667 0.641802817,1.12177778 0.966309859,0.759111111 C1.2908169,0.396444444 1.68923944,0.112 2.16157746,-0.0942222222 C2.63391549,-0.300444444 3.16574648,-0.403555556 3.75707042,-0.403555556 C4.15369014,-0.403555556 4.53769014,-0.344888889 4.90907042,-0.227555556 C5.2804507,-0.110222222 5.61577465,0.0622222222 5.91504225,0.289777778 C6.21430986,0.517333333 6.46129577,0.798222222 6.656,1.13244444 C6.85070423,1.46666667 6.96969014,1.85066667 7.01295775,2.28444444 L5.39042254,2.28444444 C5.28946479,1.85777778 5.09476056,1.53777778 4.80630986,1.32444444 C4.51785915,1.11111111 4.16811268,1.00444444 3.75707042,1.00444444 C3.37487324,1.00444444 3.0503662,1.07733333 2.7835493,1.22311111 C2.51673239,1.36888889 2.30039437,1.56444444 2.13453521,1.80977778 C1.96867606,2.05511111 1.84788732,2.33422222 1.77216901,2.64711111 C1.6964507,2.96 1.65859155,3.28355556 1.65859155,3.61777778 C1.65859155,3.93777778 1.6964507,4.24888889 1.77216901,4.55111111 C1.84788732,4.85333333 1.96867606,5.12533333 2.13453521,5.36711111 C2.30039437,5.60888889 2.51673239,5.80266667 2.7835493,5.94844444 C3.0503662,6.09422222 3.37487324,6.16711111 3.75707042,6.16711111 C4.3195493,6.16711111 4.75402817,6.02666667 5.06050704,5.74577778 C5.36698592,5.46488889 5.54546479,5.05777778 5.59594366,4.52444444 L3.88687324,4.52444444 L3.88687324,3.27644444 L7.13194366,3.27644444 L7.13194366,7.39377778 L6.05025352,7.39377778 L5.8771831,6.52977778 C5.57430986,6.91377778 5.23898592,7.18222222 4.87121127,7.33511111" id="Fill-1"></path>
                    <path d="M15.6881127,-0.222222222 L15.6881127,1.18577778 L11.6101408,1.18577778 L11.6101408,2.81777778 L15.3527887,2.81777778 L15.3527887,4.11911111 L11.6101408,4.11911111 L11.6101408,5.98577778 L15.7746479,5.98577778 L15.7746479,7.39377778 L9.91188732,7.39377778 L9.91188732,-0.222222222 L15.6881127,-0.222222222" id="Fill-2"></path>
                    <path d="M17.7216901,1.18577778 L17.7216901,-0.222222222 L24.0495775,-0.222222222 L24.0495775,1.18577778 L21.7347606,1.18577778 L21.7347606,7.39377778 L20.036507,7.39377778 L20.036507,1.18577778 L17.7216901,1.18577778" id="Fill-3"></path>
                    <path d="M30.7560563,-0.222222222 L32.4543099,-0.222222222 L32.4543099,7.39377778 L30.7560563,7.39377778 L30.7560563,-0.222222222 Z" id="Fill-4"></path>
                    <path d="M34.7465915,1.18577778 L34.7465915,-0.222222222 L41.0744789,-0.222222222 L41.0744789,1.18577778 L38.7605634,1.18577778 L38.7605634,7.39377778 L37.0623099,7.39377778 L37.0623099,1.18577778 L34.7465915,1.18577778" id="Fill-5"></path>
                    <path d="M47.7061408,2.03377778 C47.8792113,1.54666667 48.128,1.12177778 48.4516056,0.759111111 C48.7770141,0.396444444 49.1754366,0.112 49.6477746,-0.0942222222 C50.1201127,-0.300444444 50.6510423,-0.403555556 51.2432676,-0.403555556 C51.8418028,-0.403555556 52.3745352,-0.300444444 52.844169,-0.0942222222 C53.3129014,0.112 53.7086197,0.396444444 54.0340282,0.759111111 C54.3585352,1.12177778 54.6073239,1.54666667 54.779493,2.03377778 C54.9534648,2.52088889 55.04,3.04888889 55.04,3.61777778 C55.04,4.17244444 54.9534648,4.68977778 54.779493,5.16977778 C54.6073239,5.64977778 54.3585352,6.06755556 54.0340282,6.42311111 C53.7086197,6.77866667 53.3129014,7.05777778 52.844169,7.26044444 C52.3745352,7.46311111 51.8418028,7.56444444 51.2432676,7.56444444 C50.6510423,7.56444444 50.1201127,7.46311111 49.6477746,7.26044444 C49.1754366,7.05777778 48.7770141,6.77866667 48.4516056,6.42311111 C48.128,6.06755556 47.8792113,5.64977778 47.7061408,5.16977778 C47.532169,4.68977778 47.4465352,4.17244444 47.4465352,3.61777778 C47.4465352,3.04888889 47.532169,2.52088889 47.7061408,2.03377778 L47.7061408,2.03377778 Z M49.2574648,4.55111111 C49.3331831,4.85333333 49.4548732,5.12533333 49.6207324,5.36711111 C49.7856901,5.60888889 50.0029296,5.80266667 50.2697465,5.94844444 C50.535662,6.09422222 50.860169,6.16711111 51.2432676,6.16711111 C51.6254648,6.16711111 51.9499718,6.09422222 52.2167887,5.94844444 C52.4836056,5.80266667 52.6990423,5.60888889 52.8649014,5.36711111 C53.031662,5.12533333 53.1524507,4.85333333 53.228169,4.55111111 C53.3038873,4.24888889 53.3417465,3.93777778 53.3417465,3.61777778 C53.3417465,3.28355556 53.3038873,2.96 53.228169,2.64711111 C53.1524507,2.33422222 53.031662,2.05511111 52.8649014,1.80977778 C52.6990423,1.56444444 52.4836056,1.36888889 52.2167887,1.22311111 C51.9499718,1.07733333 51.6254648,1.00444444 51.2432676,1.00444444 C50.860169,1.00444444 50.535662,1.07733333 50.2697465,1.22311111 C50.0029296,1.36888889 49.7856901,1.56444444 49.6207324,1.80977778 C49.4548732,2.05511111 49.3331831,2.33422222 49.2574648,2.64711111 C49.1826479,2.96 49.1438873,3.28355556 49.1438873,3.61777778 C49.1438873,3.93777778 49.1826479,4.24888889 49.2574648,4.55111111 L49.2574648,4.55111111 Z" id="Fill-6"></path>
                    <path d="M59.2910423,-0.222222222 L62.5144789,4.88711111 L62.5352113,4.88711111 L62.5352113,-0.222222222 L64.1261972,-0.222222222 L64.1261972,7.39377778 L62.4279437,7.39377778 L59.2153239,2.29511111 L59.1936901,2.29511111 L59.1936901,7.39377778 L57.6036056,7.39377778 L57.6036056,-0.222222222 L59.2910423,-0.222222222" id="Fill-7"></path>
                </g>
            </g>
        </g>
    </g>
</svg>